<mxfile host="app.diagrams.net" agent="Mozilla/5.0 (Windows NT 10.0; Win64; x64) AppleWebKit/537.36 (KHTML, like Gecko) Chrome/126.0.0.0 YaBrowser/24.7.0.0 Safari/537.36" version="24.7.17">
  <diagram id="C5RBs43oDa-KdzZeNtuy" name="Page-1">
    <mxGraphModel dx="1386" dy="759" grid="1" gridSize="10" guides="1" tooltips="1" connect="1" arrows="1" fold="1" page="0" pageScale="1" pageWidth="827" pageHeight="1169" math="0" shadow="0">
      <root>
        <mxCell id="WIyWlLk6GJQsqaUBKTNV-0" />
        <mxCell id="WIyWlLk6GJQsqaUBKTNV-1" parent="WIyWlLk6GJQsqaUBKTNV-0" />
        <mxCell id="mE4qVkIA00PZS8pNNAoy-1" value="" style="edgeStyle=orthogonalEdgeStyle;rounded=0;orthogonalLoop=1;jettySize=auto;html=1;" edge="1" parent="WIyWlLk6GJQsqaUBKTNV-1" source="WIyWlLk6GJQsqaUBKTNV-3" target="mE4qVkIA00PZS8pNNAoy-0">
          <mxGeometry relative="1" as="geometry" />
        </mxCell>
        <mxCell id="mE4qVkIA00PZS8pNNAoy-3" value="" style="edgeStyle=orthogonalEdgeStyle;rounded=0;orthogonalLoop=1;jettySize=auto;html=1;" edge="1" parent="WIyWlLk6GJQsqaUBKTNV-1" source="WIyWlLk6GJQsqaUBKTNV-3" target="mE4qVkIA00PZS8pNNAoy-2">
          <mxGeometry relative="1" as="geometry" />
        </mxCell>
        <mxCell id="WIyWlLk6GJQsqaUBKTNV-3" value="user" style="rounded=1;whiteSpace=wrap;html=1;fontSize=12;glass=0;strokeWidth=1;shadow=0;" parent="WIyWlLk6GJQsqaUBKTNV-1" vertex="1">
          <mxGeometry x="330" width="120" height="40" as="geometry" />
        </mxCell>
        <mxCell id="mE4qVkIA00PZS8pNNAoy-5" value="" style="edgeStyle=orthogonalEdgeStyle;rounded=0;orthogonalLoop=1;jettySize=auto;html=1;" edge="1" parent="WIyWlLk6GJQsqaUBKTNV-1" source="mE4qVkIA00PZS8pNNAoy-0" target="mE4qVkIA00PZS8pNNAoy-4">
          <mxGeometry relative="1" as="geometry" />
        </mxCell>
        <mxCell id="mE4qVkIA00PZS8pNNAoy-0" value="register" style="rounded=1;whiteSpace=wrap;html=1;glass=0;strokeWidth=1;shadow=0;" vertex="1" parent="WIyWlLk6GJQsqaUBKTNV-1">
          <mxGeometry x="480" y="60" width="120" height="40" as="geometry" />
        </mxCell>
        <mxCell id="mE4qVkIA00PZS8pNNAoy-9" value="" style="edgeStyle=orthogonalEdgeStyle;rounded=0;orthogonalLoop=1;jettySize=auto;html=1;" edge="1" parent="WIyWlLk6GJQsqaUBKTNV-1" source="mE4qVkIA00PZS8pNNAoy-2" target="mE4qVkIA00PZS8pNNAoy-8">
          <mxGeometry relative="1" as="geometry" />
        </mxCell>
        <mxCell id="mE4qVkIA00PZS8pNNAoy-2" value="login" style="rounded=1;whiteSpace=wrap;html=1;fontSize=12;glass=0;strokeWidth=1;shadow=0;" vertex="1" parent="WIyWlLk6GJQsqaUBKTNV-1">
          <mxGeometry x="180" y="60" width="120" height="40" as="geometry" />
        </mxCell>
        <mxCell id="mE4qVkIA00PZS8pNNAoy-7" value="" style="edgeStyle=orthogonalEdgeStyle;rounded=0;orthogonalLoop=1;jettySize=auto;html=1;" edge="1" parent="WIyWlLk6GJQsqaUBKTNV-1" source="mE4qVkIA00PZS8pNNAoy-4" target="mE4qVkIA00PZS8pNNAoy-6">
          <mxGeometry relative="1" as="geometry" />
        </mxCell>
        <mxCell id="mE4qVkIA00PZS8pNNAoy-4" value="username: str&lt;div&gt;password: str&lt;/div&gt;&lt;div&gt;email: str&lt;/div&gt;" style="shape=document;whiteSpace=wrap;html=1;boundedLbl=1;rounded=1;glass=0;strokeWidth=1;shadow=0;" vertex="1" parent="WIyWlLk6GJQsqaUBKTNV-1">
          <mxGeometry x="500" y="160" width="100" height="70" as="geometry" />
        </mxCell>
        <mxCell id="mE4qVkIA00PZS8pNNAoy-6" value="home" style="rounded=1;whiteSpace=wrap;html=1;glass=0;strokeWidth=1;shadow=0;" vertex="1" parent="WIyWlLk6GJQsqaUBKTNV-1">
          <mxGeometry x="490" y="315" width="120" height="60" as="geometry" />
        </mxCell>
        <mxCell id="mE4qVkIA00PZS8pNNAoy-11" value="" style="edgeStyle=orthogonalEdgeStyle;rounded=0;orthogonalLoop=1;jettySize=auto;html=1;" edge="1" parent="WIyWlLk6GJQsqaUBKTNV-1" source="mE4qVkIA00PZS8pNNAoy-8" target="mE4qVkIA00PZS8pNNAoy-10">
          <mxGeometry relative="1" as="geometry" />
        </mxCell>
        <mxCell id="mE4qVkIA00PZS8pNNAoy-8" value="username&lt;div&gt;password&lt;/div&gt;" style="whiteSpace=wrap;html=1;rounded=1;glass=0;strokeWidth=1;shadow=0;" vertex="1" parent="WIyWlLk6GJQsqaUBKTNV-1">
          <mxGeometry x="180" y="170" width="120" height="60" as="geometry" />
        </mxCell>
        <mxCell id="mE4qVkIA00PZS8pNNAoy-13" value="" style="edgeStyle=orthogonalEdgeStyle;rounded=0;orthogonalLoop=1;jettySize=auto;html=1;" edge="1" parent="WIyWlLk6GJQsqaUBKTNV-1" source="mE4qVkIA00PZS8pNNAoy-10" target="mE4qVkIA00PZS8pNNAoy-12">
          <mxGeometry relative="1" as="geometry" />
        </mxCell>
        <mxCell id="mE4qVkIA00PZS8pNNAoy-20" value="Yes" style="edgeLabel;html=1;align=center;verticalAlign=middle;resizable=0;points=[];" vertex="1" connectable="0" parent="mE4qVkIA00PZS8pNNAoy-13">
          <mxGeometry x="-0.0319" y="-2" relative="1" as="geometry">
            <mxPoint as="offset" />
          </mxGeometry>
        </mxCell>
        <mxCell id="mE4qVkIA00PZS8pNNAoy-18" value="" style="edgeStyle=orthogonalEdgeStyle;rounded=0;orthogonalLoop=1;jettySize=auto;html=1;" edge="1" parent="WIyWlLk6GJQsqaUBKTNV-1" source="mE4qVkIA00PZS8pNNAoy-10" target="mE4qVkIA00PZS8pNNAoy-17">
          <mxGeometry relative="1" as="geometry" />
        </mxCell>
        <mxCell id="mE4qVkIA00PZS8pNNAoy-19" value="No" style="edgeLabel;html=1;align=center;verticalAlign=middle;resizable=0;points=[];" vertex="1" connectable="0" parent="mE4qVkIA00PZS8pNNAoy-18">
          <mxGeometry x="-0.0284" y="-1" relative="1" as="geometry">
            <mxPoint as="offset" />
          </mxGeometry>
        </mxCell>
        <mxCell id="mE4qVkIA00PZS8pNNAoy-10" value="username&lt;div&gt;password&lt;/div&gt;&lt;div&gt;correct?&lt;/div&gt;" style="whiteSpace=wrap;html=1;rounded=1;glass=0;strokeWidth=1;shadow=0;" vertex="1" parent="WIyWlLk6GJQsqaUBKTNV-1">
          <mxGeometry x="180" y="310" width="120" height="60" as="geometry" />
        </mxCell>
        <mxCell id="mE4qVkIA00PZS8pNNAoy-27" value="" style="edgeStyle=orthogonalEdgeStyle;rounded=0;orthogonalLoop=1;jettySize=auto;html=1;" edge="1" parent="WIyWlLk6GJQsqaUBKTNV-1" source="mE4qVkIA00PZS8pNNAoy-12" target="mE4qVkIA00PZS8pNNAoy-26">
          <mxGeometry relative="1" as="geometry" />
        </mxCell>
        <mxCell id="mE4qVkIA00PZS8pNNAoy-30" value="" style="edgeStyle=orthogonalEdgeStyle;rounded=0;orthogonalLoop=1;jettySize=auto;html=1;" edge="1" parent="WIyWlLk6GJQsqaUBKTNV-1" source="mE4qVkIA00PZS8pNNAoy-12" target="mE4qVkIA00PZS8pNNAoy-29">
          <mxGeometry relative="1" as="geometry" />
        </mxCell>
        <mxCell id="mE4qVkIA00PZS8pNNAoy-33" value="" style="edgeStyle=orthogonalEdgeStyle;rounded=0;orthogonalLoop=1;jettySize=auto;html=1;" edge="1" parent="WIyWlLk6GJQsqaUBKTNV-1" source="mE4qVkIA00PZS8pNNAoy-12" target="mE4qVkIA00PZS8pNNAoy-32">
          <mxGeometry relative="1" as="geometry" />
        </mxCell>
        <mxCell id="mE4qVkIA00PZS8pNNAoy-12" value="OTP" style="ellipse;whiteSpace=wrap;html=1;rounded=1;glass=0;strokeWidth=1;shadow=0;" vertex="1" parent="WIyWlLk6GJQsqaUBKTNV-1">
          <mxGeometry x="200" y="440" width="60" height="30" as="geometry" />
        </mxCell>
        <mxCell id="mE4qVkIA00PZS8pNNAoy-22" style="edgeStyle=orthogonalEdgeStyle;rounded=0;orthogonalLoop=1;jettySize=auto;html=1;" edge="1" parent="WIyWlLk6GJQsqaUBKTNV-1" source="mE4qVkIA00PZS8pNNAoy-17" target="mE4qVkIA00PZS8pNNAoy-8">
          <mxGeometry relative="1" as="geometry">
            <mxPoint x="90" y="190" as="targetPoint" />
            <Array as="points">
              <mxPoint x="40" y="251" />
              <mxPoint x="110" y="251" />
              <mxPoint x="110" y="190" />
            </Array>
          </mxGeometry>
        </mxCell>
        <mxCell id="mE4qVkIA00PZS8pNNAoy-17" value="&lt;div&gt;incorrect!&lt;/div&gt;" style="whiteSpace=wrap;html=1;rounded=1;glass=0;strokeWidth=1;shadow=0;" vertex="1" parent="WIyWlLk6GJQsqaUBKTNV-1">
          <mxGeometry x="30" y="240" width="120" height="60" as="geometry" />
        </mxCell>
        <mxCell id="mE4qVkIA00PZS8pNNAoy-28" style="edgeStyle=orthogonalEdgeStyle;rounded=0;orthogonalLoop=1;jettySize=auto;html=1;entryX=1;entryY=0.5;entryDx=0;entryDy=0;" edge="1" parent="WIyWlLk6GJQsqaUBKTNV-1" source="mE4qVkIA00PZS8pNNAoy-26" target="mE4qVkIA00PZS8pNNAoy-8">
          <mxGeometry relative="1" as="geometry">
            <mxPoint x="360" y="200" as="targetPoint" />
            <Array as="points">
              <mxPoint x="370" y="200" />
            </Array>
          </mxGeometry>
        </mxCell>
        <mxCell id="mE4qVkIA00PZS8pNNAoy-26" value="change login" style="whiteSpace=wrap;html=1;rounded=1;glass=0;strokeWidth=1;shadow=0;" vertex="1" parent="WIyWlLk6GJQsqaUBKTNV-1">
          <mxGeometry x="310" y="425" width="120" height="60" as="geometry" />
        </mxCell>
        <mxCell id="mE4qVkIA00PZS8pNNAoy-31" style="edgeStyle=orthogonalEdgeStyle;rounded=0;orthogonalLoop=1;jettySize=auto;html=1;" edge="1" parent="WIyWlLk6GJQsqaUBKTNV-1" source="mE4qVkIA00PZS8pNNAoy-29">
          <mxGeometry relative="1" as="geometry">
            <mxPoint x="210" y="440" as="targetPoint" />
            <Array as="points">
              <mxPoint x="105" y="410" />
              <mxPoint x="210" y="410" />
            </Array>
          </mxGeometry>
        </mxCell>
        <mxCell id="mE4qVkIA00PZS8pNNAoy-29" value="resent OTP" style="whiteSpace=wrap;html=1;rounded=1;glass=0;strokeWidth=1;shadow=0;" vertex="1" parent="WIyWlLk6GJQsqaUBKTNV-1">
          <mxGeometry x="60" y="432.5" width="90" height="45" as="geometry" />
        </mxCell>
        <mxCell id="mE4qVkIA00PZS8pNNAoy-35" value="" style="edgeStyle=orthogonalEdgeStyle;rounded=0;orthogonalLoop=1;jettySize=auto;html=1;" edge="1" parent="WIyWlLk6GJQsqaUBKTNV-1" source="mE4qVkIA00PZS8pNNAoy-32" target="mE4qVkIA00PZS8pNNAoy-34">
          <mxGeometry relative="1" as="geometry" />
        </mxCell>
        <mxCell id="mE4qVkIA00PZS8pNNAoy-32" value="verify OTP" style="shape=parallelogram;perimeter=parallelogramPerimeter;whiteSpace=wrap;html=1;fixedSize=1;rounded=1;glass=0;strokeWidth=1;shadow=0;" vertex="1" parent="WIyWlLk6GJQsqaUBKTNV-1">
          <mxGeometry x="170" y="535" width="120" height="35" as="geometry" />
        </mxCell>
        <mxCell id="mE4qVkIA00PZS8pNNAoy-37" value="" style="edgeStyle=orthogonalEdgeStyle;rounded=0;orthogonalLoop=1;jettySize=auto;html=1;" edge="1" parent="WIyWlLk6GJQsqaUBKTNV-1" source="mE4qVkIA00PZS8pNNAoy-34" target="mE4qVkIA00PZS8pNNAoy-36">
          <mxGeometry relative="1" as="geometry" />
        </mxCell>
        <mxCell id="mE4qVkIA00PZS8pNNAoy-38" value="No" style="edgeLabel;html=1;align=center;verticalAlign=middle;resizable=0;points=[];" vertex="1" connectable="0" parent="mE4qVkIA00PZS8pNNAoy-37">
          <mxGeometry x="0.0255" y="-1" relative="1" as="geometry">
            <mxPoint y="1" as="offset" />
          </mxGeometry>
        </mxCell>
        <mxCell id="mE4qVkIA00PZS8pNNAoy-42" value="" style="edgeStyle=orthogonalEdgeStyle;rounded=0;orthogonalLoop=1;jettySize=auto;html=1;" edge="1" parent="WIyWlLk6GJQsqaUBKTNV-1" source="mE4qVkIA00PZS8pNNAoy-34" target="mE4qVkIA00PZS8pNNAoy-41">
          <mxGeometry relative="1" as="geometry" />
        </mxCell>
        <mxCell id="mE4qVkIA00PZS8pNNAoy-43" value="Yes" style="edgeLabel;html=1;align=center;verticalAlign=middle;resizable=0;points=[];" vertex="1" connectable="0" parent="mE4qVkIA00PZS8pNNAoy-42">
          <mxGeometry x="0.0084" y="1" relative="1" as="geometry">
            <mxPoint y="1" as="offset" />
          </mxGeometry>
        </mxCell>
        <mxCell id="mE4qVkIA00PZS8pNNAoy-34" value="correct OTP?" style="shape=parallelogram;perimeter=parallelogramPerimeter;whiteSpace=wrap;html=1;fixedSize=1;rounded=1;glass=0;strokeWidth=1;shadow=0;" vertex="1" parent="WIyWlLk6GJQsqaUBKTNV-1">
          <mxGeometry x="170" y="620" width="120" height="35" as="geometry" />
        </mxCell>
        <mxCell id="mE4qVkIA00PZS8pNNAoy-39" style="edgeStyle=orthogonalEdgeStyle;rounded=0;orthogonalLoop=1;jettySize=auto;html=1;entryX=0;entryY=1;entryDx=0;entryDy=0;" edge="1" parent="WIyWlLk6GJQsqaUBKTNV-1" source="mE4qVkIA00PZS8pNNAoy-36" target="mE4qVkIA00PZS8pNNAoy-12">
          <mxGeometry relative="1" as="geometry">
            <mxPoint x="50" y="500" as="targetPoint" />
            <Array as="points">
              <mxPoint x="30" y="561" />
              <mxPoint x="100" y="561" />
              <mxPoint x="100" y="500" />
              <mxPoint x="209" y="500" />
            </Array>
          </mxGeometry>
        </mxCell>
        <mxCell id="mE4qVkIA00PZS8pNNAoy-36" value="incorrect!&amp;nbsp;" style="shape=parallelogram;perimeter=parallelogramPerimeter;whiteSpace=wrap;html=1;fixedSize=1;rounded=1;glass=0;strokeWidth=1;shadow=0;" vertex="1" parent="WIyWlLk6GJQsqaUBKTNV-1">
          <mxGeometry x="20" y="550" width="120" height="35" as="geometry" />
        </mxCell>
        <mxCell id="mE4qVkIA00PZS8pNNAoy-44" style="edgeStyle=orthogonalEdgeStyle;rounded=0;orthogonalLoop=1;jettySize=auto;html=1;" edge="1" parent="WIyWlLk6GJQsqaUBKTNV-1" source="mE4qVkIA00PZS8pNNAoy-41">
          <mxGeometry relative="1" as="geometry">
            <mxPoint x="510" y="380" as="targetPoint" />
          </mxGeometry>
        </mxCell>
        <mxCell id="mE4qVkIA00PZS8pNNAoy-41" value="success!" style="whiteSpace=wrap;html=1;rounded=1;glass=0;strokeWidth=1;shadow=0;" vertex="1" parent="WIyWlLk6GJQsqaUBKTNV-1">
          <mxGeometry x="370" y="607.5" width="120" height="60" as="geometry" />
        </mxCell>
      </root>
    </mxGraphModel>
  </diagram>
</mxfile>
